:SAMPLES-PER-SECOND 24
:FULLY-SPECIFIED
:DEGREES
218
root  11.3203 37.8908 14.3725 5.21228 -48.1082 -3.367
RightUpLeg  -11.2902 7.40946 -18.8694
RightLeg  26.0821 -13.0759 -7.08784
RightFoot  -2.58312 -0.895215 11.4238
RightToes  -2.08645e-008 3.77894e-005 6.81332e-007
Spine  10.9045 -1.02834 -7.98928
Spine1  5.68108 -4.48697 11.4795
HEad  -41.1921 35.5026 -20.8476
LeftShoulder1  7.05914 -12.8385 -37.122
LeftArm  7.87542 0.900912 -34.4064
LeftForeArm  158.016 -75.2293 -141.603
LeftHand  -0.461603 -3.24414 6.45194
RightShoulder  3.77866 6.46458 32.02
RightArm  -4.48543 -31.0909 30.6152
RightForeArm  24.9709 57.7039 15.7053
RightHand  -0.557362 8.82271 -4.92652
LeftUpLeg  -18.3753 13.0746 8.22614
LeftLeg  35.4456 18.802 14.1858
LeftFoot  -10.9207 0.109424 -12.0217
LeftToes  1.24767e-006 1.47042e-008 1.32732e-009
219
root  12.034 38.1317 15.4656 4.50073 -43.8036 -3.40643
RightUpLeg  -14.1934 5.12012 -18.0118
RightLeg  35.7951 -16.746 -12.7782
RightFoot  3.49543 -0.151249 1.21928
RightToes  -2.08645e-008 3.77894e-005 6.81332e-007
Spine  11.2214 -0.958009 -6.82839
Spine1  5.42555 -4.20915 11.2315
HEad  -40.4796 32.1999 -21.5351
LeftShoulder1  7.0825 -12.8831 -37.1467
LeftArm  9.4932 -0.989546 -33.2214
LeftForeArm  154.66 -76.3579 -137.699
LeftHand  -0.465112 -3.19572 6.53239
RightShoulder  3.78246 6.45151 32.1085
RightArm  -4.8776 -31.2965 30.663
RightForeArm  24.2235 56.4793 14.9563
RightHand  -0.519119 8.58395 -4.68526
LeftUpLeg  -17.4373 8.63567 6.10787
LeftLeg  34.2693 19.6714 14.1862
LeftFoot  -11.4296 0.0600539 -10.3951
LeftToes  1.24767e-006 1.47042e-008 1.32732e-009
220
root  12.4567 38.4298 16.2906 4.43396 -38.5467 -3.51764
RightUpLeg  -17.3949 3.60347 -15.3094
RightLeg  43.8985 -14.2629 -14.4536
RightFoot  3.06938 0.585153 -4.58841
RightToes  -2.08645e-008 3.77894e-005 6.81332e-007
Spine  11.5945 -1.01006 -7.21464
Spine1  4.39778 -4.3796 12.0744
HEad  -39.5472 29.3132 -22.2578
LeftShoulder1  6.50099 -12.2867 -35.1414
LeftArm  10.6325 0.0291725 -33.3406
LeftForeArm  160.246 -74.2475 -144.338
LeftHand  -0.466248 -3.11518 6.60519
RightShoulder  3.75741 6.44516 31.8799
RightArm  -3.05847 -32.1039 30.149
RightForeArm  27.5648 59.8754 16.9571
RightHand  -0.599049 8.10571 -5.51894
LeftUpLeg  -16.606 2.94776 4.7967
LeftLeg  31.993 20.4899 13.5815
LeftFoot  -11.3743 0.0654332 -9.45273
LeftToes  1.24767e-006 1.47042e-008 1.32732e-009
221
root  12.5603 38.8232 16.9658 4.57678 -31.0048 -3.67981
RightUpLeg  -18.8565 1.80099 -10.7214
RightLeg  47.2108 -10.5265 -12.2445
RightFoot  -2.36614 0.257194 -3.38128
RightToes  -2.08645e-008 3.77894e-005 6.81332e-007
Spine  11.8897 -1.42671 -8.4573
Spine1  3.37014 -5.15582 13.6859
HEad  -38.0657 25.7694 -21.8584
LeftShoulder1  5.5951 -11.3024 -31.7849
LeftArm  12.3998 0.484587 -34.4278
LeftForeArm  165.166 -71.335 -150.733
LeftHand  -0.485665 -2.83727 7.08292
RightShoulder  3.65904 6.37632 31.1406
RightArm  -0.146249 -34.8009 29.3322
RightForeArm  35.725 67.8927 24.5424
RightHand  -0.477682 7.721 -4.5813
LeftUpLeg  -15.5191 -2.62652 4.3615
LeftLeg  28.0901 19.8937 11.4449
LeftFoot  -10.2685 0.137097 -8.13465
LeftToes  1.24767e-006 1.47042e-008 1.32732e-009
222
root  12.4585 39.2444 17.6012 5.13672 -21.4121 -3.49951
RightUpLeg  -20.1135 -0.355805 -5.73355
RightLeg  45.8281 -10.3537 -11.5104
RightFoot  -6.09909 -0.0077005 -0.734929
RightToes  -2.08645e-008 3.77894e-005 6.81332e-007
Spine  12.1798 -2.099 -9.95258
Spine1  1.62664 -6.06766 15.2061
HEad  -35.4547 21.5082 -19.9192
LeftShoulder1  4.86842 -10.5375 -28.6302
LeftArm  14.9384 -1.06207 -35.5639
LeftForeArm  167.631 -69.797 -153.354
LeftHand  -0.470365 -2.93889 6.7897
RightShoulder  3.48988 6.23094 29.9373
RightArm  3.01509 -39.2138 27.6346
RightForeArm  57.3279 76.8912 46.7009
RightHand  -0.330923 7.48267 -3.34223
LeftUpLeg  -14.5604 -7.39675 4.41446
LeftLeg  22.6044 16.0937 7.5452
LeftFoot  -8.87667 0.203227 -6.97393
LeftToes  1.24767e-006 1.47042e-008 1.32732e-009
223
root  12.2759 39.5585 18.1945 5.78003 -9.93677 -3.05139
RightUpLeg  -21.3311 -1.33463 -1.90964
RightLeg  39.9168 -12.2716 -11.0592
RightFoot  -8.07914 -0.0876127 1.16516
RightToes  -2.08645e-008 3.77894e-005 6.81332e-007
Spine  13.4123 -3.19658 -11.2309
Spine1  -0.664662 -7.30353 16.3963
HEad  -33.4345 17.4309 -17.7979
LeftShoulder1  4.31567 -9.98739 -25.8576
LeftArm  17.6646 -4.15122 -37.0807
LeftForeArm  167.859 -69.6114 -153.638
LeftHand  -0.448093 -3.24864 6.2666
RightShoulder  3.31579 6.09129 28.6147
RightArm  6.05221 -43.1071 24.2399
RightForeArm  107.725 80.3405 97.1041
RightHand  -0.141575 7.9602 -1.6052
LeftUpLeg  -14.3059 -11.9275 4.73526
LeftLeg  17.634 9.42131 3.80799
LeftFoot  -7.78441 0.265551 -7.0195
LeftToes  1.24767e-006 1.47042e-008 1.32732e-009
224
root  12.0176 39.6472 18.7311 6.06665 2.78638 -2.46777
RightUpLeg  -22.015 2.10437 -0.967731
RightLeg  30.465 -11.4582 -7.47209
RightFoot  -10.3296 -0.095034 2.83067
RightToes  -2.08645e-008 3.77894e-005 6.81332e-007
Spine  15.7343 -4.25383 -12.1061
Spine1  -2.15546 -8.58992 17.1918
HEad  -33.6634 14.2896 -16.7439
LeftShoulder1  3.86193 -9.45712 -23.5628
LeftArm  20.3984 -9.29596 -39.6099
LeftForeArm  164.27 -70.8815 -151.341
LeftHand  -0.438054 -3.25997 6.12465
RightShoulder  3.20886 6.04461 27.6342
RightArm  7.42699 -44.7093 19.4539
RightForeArm  140.896 77.3379 131.107
RightHand  -0.123638 8.53148 -1.40484
LeftUpLeg  -14.8015 -15.0014 4.57189
LeftLeg  15.1514 0.849642 1.79366
LeftFoot  -7.7925 0.313337 -8.492
LeftToes  1.24767e-006 1.47042e-008 1.32732e-009
